<?xml version="1.0"?>
<svg id="Layer_1_1_" style="enable-background:new 0 0 64 64;" version="1.1" viewBox="0 0 64 64" xml:space="preserve" xmlns="http://www.w3.org/2000/svg" xmlns:xlink="http://www.w3.org/1999/xlink">
	<g>
		<rect height="2" width="8" x="28" y="57" fill="#EB610D"/>
		<path d="M60,13H50V6c0-2.757-2.243-5-5-5H19c-2.757,0-5,2.243-5,5v21H4c-1.654,0-3,1.346-3,3v12c0,1.654,1.346,3,3,3h6.713   L14,47.054V58c0,2.757,2.243,5,5,5h26c2.757,0,5-2.243,5-5V33.054L53.287,31H60c1.654,0,3-1.346,3-3V16C63,14.346,61.654,13,60,13z    M19,3h26c1.654,0,3,1.346,3,3v1H16V6C16,4.346,17.346,3,19,3z M4,43c-0.551,0-1-0.449-1-1V30c0-0.551,0.449-1,1-1h24   c0.551,0,1,0.449,1,1v12c0,0.551-0.449,1-1,1H18v4.196L11.287,43H4z M45,61H19c-1.654,0-3-1.346-3-3v-3h32v3   C48,59.654,46.654,61,45,61z M48,53H16v-4.696l4,2.5V45h8c1.654,0,3-1.346,3-3V30c0-1.654-1.346-3-3-3H16V9h32v4H36   c-1.654,0-3,1.346-3,3v12c0,1.654,1.346,3,3,3h8v5.804l4-2.5V53z M61,28c0,0.551-0.449,1-1,1h-7.287L46,33.196V29H36   c-0.551,0-1-0.449-1-1V16c0-0.551,0.449-1,1-1h24c0.551,0,1,0.449,1,1V28z" fill="#EB610D"/>
		<path d="M8,33c0.551,0,1,0.449,1,1h2c0-1.654-1.346-3-3-3s-3,1.346-3,3s1.346,3,3,3c0.551,0,1,0.449,1,1s-0.449,1-1,1s-1-0.449-1-1   H5c0,1.654,1.346,3,3,3s3-1.346,3-3s-1.346-3-3-3c-0.551,0-1-0.449-1-1S7.449,33,8,33z" fill="#EB610D"/>
		<path d="M24,39c-0.551,0-1-0.449-1-1h-2c0,1.654,1.346,3,3,3s3-1.346,3-3s-1.346-3-3-3c-0.551,0-1-0.449-1-1s0.449-1,1-1   s1,0.449,1,1h2c0-1.654-1.346-3-3-3s-3,1.346-3,3s1.346,3,3,3c0.551,0,1,0.449,1,1S24.551,39,24,39z" fill="#EB610D"/>
		<path d="M20,36c0-2.757-1.794-5-4-5s-4,2.243-4,5s1.794,5,4,5S20,38.757,20,36z M16,39c-1.084,0-2-1.374-2-3s0.916-3,2-3   s2,1.374,2,3S17.084,39,16,39z" fill="#EB610D"/>
		<rect height="2" width="22" x="37" y="17" fill="#EB610D"/>
		<rect height="2" width="18" x="37" y="21" fill="#EB610D"/>
		<rect height="2" width="2" x="57" y="21" fill="#EB610D"/>
		<rect height="2" width="2" x="47" y="25" fill="#EB610D"/>
		<rect height="2" width="2" x="53" y="25" fill="#EB610D"/>
		<rect height="2" width="2" x="41" y="25" fill="#EB610D"/>
	</g>
</svg>
