<?xml version="1.0"?>
<svg id="outine" viewBox="0 0 48 48" xmlns="http://www.w3.org/2000/svg">
	<title />
	<path d="M9.37,40.27a2.412,2.412,0,1,0-2.411-2.413A2.415,2.415,0,0,0,9.37,40.27Zm0-3.324a.912.912,0,1,1-.911.911A.912.912,0,0,1,9.37,36.946Z" fill="#EB610D" />
	<path d="M39.106,35.446a2.412,2.412,0,1,0,2.411,2.411A2.414,2.414,0,0,0,39.106,35.446Zm0,3.324a.912.912,0,1,1,.911-.913A.914.914,0,0,1,39.106,38.77Z" fill="#EB610D" />
	<path d="M47.619,28.33,39.9,23.966l-3.4-8.815a.75.75,0,0,0-.7-.479H29.462V13.665a3.234,3.234,0,1,0-6.468,0v1.007H.75a.75.75,0,0,0-.75.75V37.857a.75.75,0,0,0,.75.75h3.1a5.566,5.566,0,0,0,11.034,0H21.1a.75.75,0,0,0,0-1.5H14.887a5.566,5.566,0,0,0-11.034,0H1.5V16.172H30.605v8.314a.75.75,0,0,0,.75.75h4.891a.75.75,0,0,0,0-1.5H32.1V16.172h3.178L38.6,24.757a.752.752,0,0,0,.331.383L46.5,29.421v7.686H44.623a5.566,5.566,0,0,0-11.034,0H26.978V17.7a.75.75,0,0,0-1.5,0V37.107H23.612a.75.75,0,1,0,0,1.5h9.977a5.566,5.566,0,0,0,11.034,0H47.25a.75.75,0,0,0,.75-.75V28.983A.753.753,0,0,0,47.619,28.33ZM9.37,33.78A4.078,4.078,0,1,1,5.3,37.857,4.08,4.08,0,0,1,9.37,33.78ZM24.494,13.665a1.734,1.734,0,1,1,3.468,0v1.007H24.494Zm14.612,28.27a4.078,4.078,0,1,1,4.074-4.078A4.08,4.08,0,0,1,39.106,41.935Z" fill="#EB610D" />
	<path d="M30.605,12.8a.75.75,0,0,0,.75.75h2.357a.75.75,0,0,0,0-1.5H31.355A.75.75,0,0,0,30.605,12.8Z" fill="#EB610D" />
	<path d="M18.744,13.549H21.1a.75.75,0,0,0,0-1.5H18.744a.75.75,0,0,0,0,1.5Z" fill="#EB610D" />
	<path d="M26.228,9.6a.75.75,0,0,0,.75-.75V5.315a.75.75,0,0,0-1.5,0V8.847A.75.75,0,0,0,26.228,9.6Z" fill="#EB610D" />
	<path d="M29.257,10.52a.752.752,0,0,0,.531-.22L32.05,8.037a.75.75,0,0,0-1.06-1.06L28.727,9.239a.751.751,0,0,0,.53,1.281Z" fill="#EB610D" />
	<path d="M22.669,10.3a.75.75,0,0,0,1.06-1.061L21.466,6.977a.75.75,0,0,0-1.06,1.06Z" fill="#EB610D" />
	<path d="M12.344,29.717h3.272a.621.621,0,0,0,.62-.621V26.742H18.59a.62.62,0,0,0,.62-.621V22.85a.62.62,0,0,0-.62-.621H16.236V19.877a.621.621,0,0,0-.62-.621H12.344a.62.62,0,0,0-.62.621v2.352H9.37a.62.62,0,0,0-.62.621v3.271a.62.62,0,0,0,.62.621h2.354V29.1A.621.621,0,0,0,12.344,29.717ZM9.991,25.5V23.471h2.353a.622.622,0,0,0,.621-.621V20.5H15V22.85a.622.622,0,0,0,.621.621h2.353V25.5H15.616a.621.621,0,0,0-.621.621v2.354h-2.03V26.121a.621.621,0,0,0-.621-.621Z" fill="#EB610D" />
</svg>
