<?xml version="1.0"?>
<svg viewBox="0 0 512 512" xmlns="http://www.w3.org/2000/svg">
	<title />
	<g id="Navigator">
		<path d="M456.59,74.3682A86.939,86.939,0,0,0,324.3689,186.3735L381.202,265.936a17.1,17.1,0,0,0,27.832,0l56.833-79.5625A86.6665,86.6665,0,0,0,456.59,74.3682ZM395.118,164.3445a28.5,28.5,0,1,1,28.5-28.5A28.5014,28.5014,0,0,1,395.118,164.3445Z" fill="#EB610D"/>
		<path d="M395.118,314.9019A17.0965,17.0965,0,0,0,378.02,332v36.46a60.4419,60.4419,0,1,1-120.8838,0V213.38a94.6382,94.6382,0,1,0-189.2763,0V294a17.0982,17.0982,0,0,0,34.1963,0V213.38a60.4419,60.4419,0,1,1,120.8837,0V368.46a94.6382,94.6382,0,0,0,189.2764,0V332A17.0965,17.0965,0,0,0,395.118,314.9019Z" fill="#EB610D"/>
		<path d="M84.9578,352.9019A55.0981,55.0981,0,1,0,140.056,408,55.1578,55.1578,0,0,0,84.9578,352.9019Z" fill="#EB610D"/>
	</g>
</svg>
